<svg xmlns="http://www.w3.org/2000/svg" xmlns:xlink="http://www.w3.org/1999/xlink" contentStyleType="text/css" data-diagram-type="DESCRIPTION" height="848px" preserveAspectRatio="none" style="width:1066px;height:848px;background:#FFFFFF;" version="1.1" viewBox="0 0 1066 848" width="1066px" zoomAndPan="magnify"><defs/><g><!--cluster L2--><g class="cluster" data-entity="L2" data-source-line="2" data-uid="ent0003" id="cluster_L2"><path d="M8.5,156 L70.3672,156 A3.75,3.75 0 0 1 72.8672,158.5 L79.8672,178.4883 L977.5,178.4883 A2.5,2.5 0 0 1 980,180.9883 L980,333.5 A2.5,2.5 0 0 1 977.5,336 L8.5,336 A2.5,2.5 0 0 1 6,333.5 L6,158.5 A2.5,2.5 0 0 1 8.5,156" fill="none" style="stroke:#000000;stroke-width:1.5;"/><line style="stroke:#000000;stroke-width:1.5;" x1="6" x2="79.8672" y1="178.4883" y2="178.4883"/><text fill="#000000" font-family="sans-serif" font-size="14" font-weight="bold" lengthAdjust="spacing" textLength="60.8672" x="10" y="171.5352">Layer 2s</text></g><!--cluster L2_1--><g class="cluster" data-entity="L2_1" data-source-line="3" data-uid="ent0004" id="cluster_L2_1"><rect fill="none" height="113" rx="2.5" ry="2.5" style="stroke:#181818;stroke-width:1;" width="686" x="270" y="199"/><rect fill="none" height="10" style="stroke:#181818;stroke-width:1;" width="15" x="936" y="204"/><rect fill="none" height="2" style="stroke:#181818;stroke-width:1;" width="4" x="934" y="206"/><rect fill="none" height="2" style="stroke:#181818;stroke-width:1;" width="4" x="934" y="210"/><text fill="#000000" font-family="sans-serif" font-size="14" font-weight="bold" lengthAdjust="spacing" textLength="60.0264" x="582.9868" y="225.5352">Rollup 1</text></g><!--cluster L1--><g class="cluster" data-entity="L1" data-source-line="13" data-uid="ent0011" id="cluster_L1"><path d="M394.5,629 L448.4512,629 A3.75,3.75 0 0 1 450.9512,631.5 L457.9512,651.4883 L1056.5,651.4883 A2.5,2.5 0 0 1 1059,653.9883 L1059,839.48 A2.5,2.5 0 0 1 1056.5,841.98 L394.5,841.98 A2.5,2.5 0 0 1 392,839.48 L392,631.5 A2.5,2.5 0 0 1 394.5,629" fill="none" style="stroke:#000000;stroke-width:1.5;"/><line style="stroke:#000000;stroke-width:1.5;" x1="392" x2="457.9512" y1="651.4883" y2="651.4883"/><text fill="#000000" font-family="sans-serif" font-size="14" font-weight="bold" lengthAdjust="spacing" textLength="52.9512" x="396" y="644.5352">Layer 1</text></g><!--cluster L2_L1--><g class="cluster" data-entity="L2_L1" data-source-line="15" data-uid="ent0013" id="cluster_L2_L1"><path d="M598.5,680 L719.71,680 A3.75,3.75 0 0 1 722.21,682.5 L729.21,702.4883 L1024.5,702.4883 A2.5,2.5 0 0 1 1027,704.9883 L1027,807.48 A2.5,2.5 0 0 1 1024.5,809.98 L598.5,809.98 A2.5,2.5 0 0 1 596,807.48 L596,682.5 A2.5,2.5 0 0 1 598.5,680" fill="none" style="stroke:#000000;stroke-width:1.5;"/><line style="stroke:#000000;stroke-width:1.5;" x1="596" x2="729.21" y1="702.4883" y2="702.4883"/><text fill="#000000" font-family="sans-serif" font-size="14" font-weight="bold" lengthAdjust="spacing" textLength="120.21" x="600" y="695.5352">Rollup Contracts</text></g><!--entity L2_2--><g class="entity" data-entity="L2_2" data-source-line="10" data-uid="ent0009" id="entity_L2_2"><rect fill="#F1F1F1" height="46.4883" rx="2.5" ry="2.5" style="stroke:#181818;stroke-width:0.5;" width="96.3281" x="21.84" y="241.76"/><rect fill="#F1F1F1" height="10" style="stroke:#181818;stroke-width:0.5;" width="15" x="98.1681" y="246.76"/><rect fill="#F1F1F1" height="2" style="stroke:#181818;stroke-width:0.5;" width="4" x="96.1681" y="248.76"/><rect fill="#F1F1F1" height="2" style="stroke:#181818;stroke-width:0.5;" width="4" x="96.1681" y="252.76"/><text fill="#000000" font-family="sans-serif" font-size="14" lengthAdjust="spacing" textLength="56.3281" x="36.84" y="275.2952">Rollup 2</text></g><!--entity L2_N--><g class="entity" data-entity="L2_N" data-source-line="11" data-uid="ent0010" id="entity_L2_N"><rect fill="#F1F1F1" height="46.4883" rx="2.5" ry="2.5" style="stroke:#181818;stroke-width:0.5;" width="97.8184" x="153.09" y="241.76"/><rect fill="#F1F1F1" height="10" style="stroke:#181818;stroke-width:0.5;" width="15" x="230.9084" y="246.76"/><rect fill="#F1F1F1" height="2" style="stroke:#181818;stroke-width:0.5;" width="4" x="228.9084" y="248.76"/><rect fill="#F1F1F1" height="2" style="stroke:#181818;stroke-width:0.5;" width="4" x="228.9084" y="252.76"/><text fill="#000000" font-family="sans-serif" font-size="14" lengthAdjust="spacing" textLength="57.8184" x="168.09" y="275.2952">Rollup N</text></g><!--entity L2_1_RPC--><g class="entity" data-entity="L2_1_RPC" data-source-line="4" data-uid="ent0005" id="entity_L2_1_RPC"><rect fill="#F1F1F1" height="46.4883" rx="2.5" ry="2.5" style="stroke:#181818;stroke-width:0.5;" width="172.2754" x="649.86" y="241.76"/><rect fill="#F1F1F1" height="10" style="stroke:#181818;stroke-width:0.5;" width="15" x="802.1354" y="246.76"/><rect fill="#F1F1F1" height="2" style="stroke:#181818;stroke-width:0.5;" width="4" x="800.1354" y="248.76"/><rect fill="#F1F1F1" height="2" style="stroke:#181818;stroke-width:0.5;" width="4" x="800.1354" y="252.76"/><text fill="#000000" font-family="sans-serif" font-size="14" lengthAdjust="spacing" textLength="132.2754" x="664.86" y="275.2952">API (e.g. JSON-RPC)</text></g><!--entity L2_Seq--><g class="entity" data-entity="L2_Seq" data-source-line="5" data-uid="ent0006" id="entity_L2_Seq"><rect fill="#F1F1F1" height="46.4883" rx="2.5" ry="2.5" style="stroke:#181818;stroke-width:0.5;" width="110.0273" x="285.99" y="241.76"/><rect fill="#F1F1F1" height="10" style="stroke:#181818;stroke-width:0.5;" width="15" x="376.0173" y="246.76"/><rect fill="#F1F1F1" height="2" style="stroke:#181818;stroke-width:0.5;" width="4" x="374.0173" y="248.76"/><rect fill="#F1F1F1" height="2" style="stroke:#181818;stroke-width:0.5;" width="4" x="374.0173" y="252.76"/><text fill="#000000" font-family="sans-serif" font-size="14" lengthAdjust="spacing" textLength="70.0273" x="300.99" y="275.2952">Sequencer</text></g><!--entity L2_1_Val--><g class="entity" data-entity="L2_1_Val" data-source-line="6" data-uid="ent0007" id="entity_L2_1_Val"><rect fill="#F1F1F1" height="46.4883" rx="2.5" ry="2.5" style="stroke:#181818;stroke-width:0.5;" width="101.0859" x="513.46" y="241.76"/><rect fill="#F1F1F1" height="10" style="stroke:#181818;stroke-width:0.5;" width="15" x="594.5459" y="246.76"/><rect fill="#F1F1F1" height="2" style="stroke:#181818;stroke-width:0.5;" width="4" x="592.5459" y="248.76"/><rect fill="#F1F1F1" height="2" style="stroke:#181818;stroke-width:0.5;" width="4" x="592.5459" y="252.76"/><text fill="#000000" font-family="sans-serif" font-size="14" lengthAdjust="spacing" textLength="61.0859" x="528.46" y="275.2952">Validator</text></g><!--entity L2_1_Prover--><g class="entity" data-entity="L2_1_Prover" data-source-line="7" data-uid="ent0008" id="entity_L2_1_Prover"><rect fill="#F1F1F1" height="46.4883" rx="2.5" ry="2.5" style="stroke:#181818;stroke-width:0.5;" width="82.8408" x="857.58" y="241.76"/><rect fill="#F1F1F1" height="10" style="stroke:#181818;stroke-width:0.5;" width="15" x="920.4208" y="246.76"/><rect fill="#F1F1F1" height="2" style="stroke:#181818;stroke-width:0.5;" width="4" x="918.4208" y="248.76"/><rect fill="#F1F1F1" height="2" style="stroke:#181818;stroke-width:0.5;" width="4" x="918.4208" y="252.76"/><text fill="#000000" font-family="sans-serif" font-size="14" lengthAdjust="spacing" textLength="42.8408" x="872.58" y="275.2952">Prover</text></g><!--entity LC--><g class="entity" data-entity="LC" data-source-line="14" data-uid="ent0012" id="entity_LC"><rect fill="#F1F1F1" height="62.9766" rx="2.5" ry="2.5" style="stroke:#181818;stroke-width:0.5;" width="118.1006" x="407.95" y="723"/><rect fill="#F1F1F1" height="10" style="stroke:#181818;stroke-width:0.5;" width="15" x="506.0506" y="728"/><rect fill="#F1F1F1" height="2" style="stroke:#181818;stroke-width:0.5;" width="4" x="504.0506" y="730"/><rect fill="#F1F1F1" height="2" style="stroke:#181818;stroke-width:0.5;" width="4" x="504.0506" y="734"/><text fill="#000000" font-family="sans-serif" font-size="14" lengthAdjust="spacing" textLength="78.1006" x="422.95" y="756.5352">Light Client</text><text fill="#000000" font-family="sans-serif" font-size="14" lengthAdjust="spacing" textLength="58.0781" x="422.95" y="773.0234">Contract</text></g><!--entity L2_1_L1--><g class="entity" data-entity="L2_1_L1" data-source-line="16" data-uid="ent0014" id="entity_L2_1_L1"><rect fill="#F1F1F1" height="62.9766" rx="2.5" ry="2.5" style="stroke:#181818;stroke-width:0.5;" width="98.0781" x="638.96" y="723"/><rect fill="#F1F1F1" height="10" style="stroke:#181818;stroke-width:0.5;" width="15" x="717.0381" y="728"/><rect fill="#F1F1F1" height="2" style="stroke:#181818;stroke-width:0.5;" width="4" x="715.0381" y="730"/><rect fill="#F1F1F1" height="2" style="stroke:#181818;stroke-width:0.5;" width="4" x="715.0381" y="734"/><text fill="#000000" font-family="sans-serif" font-size="14" lengthAdjust="spacing" textLength="56.3281" x="653.96" y="756.5352">Rollup 1</text><text fill="#000000" font-family="sans-serif" font-size="14" lengthAdjust="spacing" textLength="58.0781" x="653.96" y="773.0234">Contract</text></g><!--entity L2_2_L1--><g class="entity" data-entity="L2_2_L1" data-source-line="17" data-uid="ent0015" id="entity_L2_2_L1"><rect fill="#F1F1F1" height="62.9766" rx="2.5" ry="2.5" style="stroke:#181818;stroke-width:0.5;" width="98.0781" x="771.96" y="723"/><rect fill="#F1F1F1" height="10" style="stroke:#181818;stroke-width:0.5;" width="15" x="850.0381" y="728"/><rect fill="#F1F1F1" height="2" style="stroke:#181818;stroke-width:0.5;" width="4" x="848.0381" y="730"/><rect fill="#F1F1F1" height="2" style="stroke:#181818;stroke-width:0.5;" width="4" x="848.0381" y="734"/><text fill="#000000" font-family="sans-serif" font-size="14" lengthAdjust="spacing" textLength="56.3281" x="786.96" y="756.5352">Rollup 2</text><text fill="#000000" font-family="sans-serif" font-size="14" lengthAdjust="spacing" textLength="58.0781" x="786.96" y="773.0234">Contract</text></g><!--entity L2_N_L1--><g class="entity" data-entity="L2_N_L1" data-source-line="18" data-uid="ent0016" id="entity_L2_N_L1"><rect fill="#F1F1F1" height="62.9766" rx="2.5" ry="2.5" style="stroke:#181818;stroke-width:0.5;" width="98.0781" x="904.96" y="723"/><rect fill="#F1F1F1" height="10" style="stroke:#181818;stroke-width:0.5;" width="15" x="983.0381" y="728"/><rect fill="#F1F1F1" height="2" style="stroke:#181818;stroke-width:0.5;" width="4" x="981.0381" y="730"/><rect fill="#F1F1F1" height="2" style="stroke:#181818;stroke-width:0.5;" width="4" x="981.0381" y="734"/><text fill="#000000" font-family="sans-serif" font-size="14" lengthAdjust="spacing" textLength="57.8184" x="919.96" y="756.5352">Rollup N</text><text fill="#000000" font-family="sans-serif" font-size="14" lengthAdjust="spacing" textLength="58.0781" x="919.96" y="773.0234">Contract</text></g><!--entity Esp--><g class="entity" data-entity="Esp" data-source-line="1" data-uid="ent0002" id="entity_Esp"><rect fill="#F1F1F1" height="46.4883" rx="2.5" ry="2.5" style="stroke:#181818;stroke-width:0.5;" width="161.0439" x="292.48" y="459.26"/><rect fill="#F1F1F1" height="10" style="stroke:#181818;stroke-width:0.5;" width="15" x="433.5239" y="464.26"/><rect fill="#F1F1F1" height="2" style="stroke:#181818;stroke-width:0.5;" width="4" x="431.5239" y="466.26"/><rect fill="#F1F1F1" height="2" style="stroke:#181818;stroke-width:0.5;" width="4" x="431.5239" y="470.26"/><text fill="#000000" font-family="sans-serif" font-size="14" lengthAdjust="spacing" textLength="121.0439" x="307.48" y="492.7952">Espresso Network</text></g><!--entity Client--><g class="entity" data-entity="Client" data-source-line="22" data-uid="ent0017" id="entity_Client"><ellipse cx="212" cy="14" fill="#F1F1F1" rx="8" ry="8" style="stroke:#181818;stroke-width:0.5;"/><text fill="#000000" font-family="sans-serif" font-size="14" lengthAdjust="spacing" textLength="39.5049" x="192.2476" y="44.5352">Client</text></g><!--link Client to L2_1_RPC--><g class="link" data-entity-1="Client" data-entity-2="L2_1_RPC" data-source-line="22" data-uid="lnk18" id="link_Client_L2_1_RPC"><path d="M220.72,16.03 C266.8,21.82 485.49,53.42 632,148 C670.4,172.8 700.0223,210.4716 718.0323,236.5716" fill="none" id="Client-to-L2_1_RPC" style="stroke:#181818;stroke-width:1;"/><polygon fill="#181818" points="721.44,241.51,719.6207,231.8306,718.6003,237.3947,713.0362,236.3742,721.44,241.51" style="stroke:#181818;stroke-width:1;"/><path d="M646.6662,78 L646.6662,103 L679.6662,103 L679.6662,88 L669.6662,78 L646.6662,78" fill="#FEFFDD" style="stroke:#181818;stroke-width:0.5;"/><path d="M669.6662,78 L669.6662,88 L679.6662,88 L669.6662,78" fill="#FEFFDD" style="stroke:#181818;stroke-width:0.5;"/><text fill="#000000" font-family="sans-serif" font-size="13" lengthAdjust="spacing" textLength="12.3335" x="652.6662" y="95.5684">1.</text><text fill="#000000" font-family="sans-serif" font-size="13" lengthAdjust="spacing" textLength="99.8169" x="613.4245" y="121.8789">L2 Transactions</text><text fill="#000000" font-family="sans-serif" font-size="13" lengthAdjust="spacing" textLength="100.9658" x="612.85" y="137.1895">L2 State queries</text></g><!--link Client to L2_2--><g class="link" data-entity-1="Client" data-entity-2="L2_2" data-source-line="26" data-uid="lnk19" id="link_Client_L2_2"><path d="M203.31,16.56 C181.39,20.97 123.71,35.75 97,73 C60.31,124.17 62.3294,197.2222 66.3194,235.5922" fill="none" id="Client-to-L2_2" style="stroke:#181818;stroke-width:1;"/><polygon fill="#181818" points="66.94,241.56,69.9877,232.1946,66.4229,236.5868,62.0306,233.022,66.94,241.56" style="stroke:#181818;stroke-width:1;"/><text fill="#000000" font-family="sans-serif" font-size="13" lengthAdjust="spacing" textLength="99.8169" x="98.5745" y="104.0684">L2 Transactions</text><text fill="#000000" font-family="sans-serif" font-size="13" lengthAdjust="spacing" textLength="100.9658" x="98" y="119.3789">L2 State queries</text></g><!--link Client to L2_N--><g class="link" data-entity-1="Client" data-entity-2="L2_N" data-source-line="27" data-uid="lnk20" id="link_Client_L2_N"><path d="M211.69,22.73 C210.35,56.06 205.2807,182.2448 203.1407,235.5548" fill="none" id="Client-to-L2_N" style="stroke:#181818;stroke-width:1;"/><polygon fill="#181818" points="202.9,241.55,207.2578,232.7177,203.1006,236.554,199.2642,232.3968,202.9,241.55" style="stroke:#181818;stroke-width:1;"/><text fill="#000000" font-family="sans-serif" font-size="13" lengthAdjust="spacing" textLength="99.8169" x="211.1545" y="104.0684">L2 Transactions</text><text fill="#000000" font-family="sans-serif" font-size="13" lengthAdjust="spacing" textLength="100.9658" x="210.58" y="119.3789">L2 State queries</text></g><!--link L2_Seq to L2_Seq--><g class="link" data-entity-1="L2_Seq" data-entity-2="L2_Seq" data-source-line="29" data-uid="lnk21" id="link_L2_Seq_L2_Seq"><path d="M396.38,242.42 C415.54,242.18 431.01,249.71 431.01,265 C431.01,280.3 421.5395,287.9052 402.3795,287.6652" fill="none" id="L2_Seq-to-L2_Seq" style="stroke:#181818;stroke-width:1;"/><polygon fill="#181818" points="396.38,287.59,405.3292,291.7024,401.3796,287.6526,405.4294,283.703,396.38,287.59" style="stroke:#181818;stroke-width:1;"/><path d="M446.7146,239 L446.7146,264 L479.7146,264 L479.7146,249 L469.7146,239 L446.7146,239" fill="#FEFFDD" style="stroke:#181818;stroke-width:0.5;"/><path d="M469.7146,239 L469.7146,249 L479.7146,249 L469.7146,239" fill="#FEFFDD" style="stroke:#181818;stroke-width:0.5;"/><text fill="#000000" font-family="sans-serif" font-size="13" lengthAdjust="spacing" textLength="12.3335" x="452.7146" y="256.5684">2.</text><text fill="#000000" font-family="sans-serif" font-size="13" lengthAdjust="spacing" textLength="52.7427" x="437.01" y="287.8789">L2 Block</text></g><!--link L2_Seq to Esp--><g class="link" data-entity-1="L2_Seq" data-entity-2="Esp" data-source-line="34" data-uid="lnk22" id="link_L2_Seq_Esp"><path d="M344.36,288.66 C350.51,330.05 362.5984,411.4951 368.7484,452.8951" fill="none" id="L2_Seq-to-Esp" style="stroke:#181818;stroke-width:1;"/><polygon fill="#181818" points="369.63,458.83,372.2641,449.3399,368.8953,453.8843,364.351,450.5154,369.63,458.83" style="stroke:#181818;stroke-width:1;"/><text fill="#000000" font-family="sans-serif" font-size="13" lengthAdjust="spacing" textLength="109.1606" x="364.54" y="365.5684">Rollup 1 L2 Block</text><text fill="#000000" font-family="sans-serif" font-size="13" lengthAdjust="spacing" textLength="69.9004" x="384.1701" y="380.8789">Rollup 1 ID</text><path d="M402.4536,389.6211 L402.4536,414.6211 L435.4536,414.6211 L435.4536,399.6211 L425.4536,389.6211 L402.4536,389.6211" fill="#FEFFDD" style="stroke:#181818;stroke-width:0.5;"/><path d="M425.4536,389.6211 L425.4536,399.6211 L435.4536,399.6211 L425.4536,389.6211" fill="#FEFFDD" style="stroke:#181818;stroke-width:0.5;"/><text fill="#000000" font-family="sans-serif" font-size="13" lengthAdjust="spacing" textLength="12.3335" x="408.4536" y="407.1895">3.</text></g><!--link L2_2 to Esp--><g class="link" data-entity-1="L2_2" data-entity-2="Esp" data-source-line="39" data-uid="lnk23" id="link_L2_2_Esp"><path d="M65.14,288.72 C59.51,321.8 54.72,383.16 87,419 C114,448.98 211.5282,465.1344 286.2682,473.6044" fill="none" id="L2_2-to-Esp" style="stroke:#181818;stroke-width:1;"/><polygon fill="#181818" points="292.23,474.28,283.7377,469.292,287.2618,473.717,282.8368,477.2411,292.23,474.28" style="stroke:#181818;stroke-width:1;"/><text fill="#000000" font-family="sans-serif" font-size="13" lengthAdjust="spacing" textLength="109.1606" x="88" y="383.0684">Rollup 2 L2 Block</text><text fill="#000000" font-family="sans-serif" font-size="13" lengthAdjust="spacing" textLength="69.9004" x="107.6301" y="398.3789">Rollup 2 ID</text></g><!--link L2_N to Esp--><g class="link" data-entity-1="L2_N" data-entity-2="Esp" data-source-line="40" data-uid="lnk24" id="link_L2_N_Esp"><path d="M200.69,288.66 C200.02,321.09 203.48,381.04 234,419 C248.92,437.56 265.0187,448.4282 286.7687,457.7882" fill="none" id="L2_N-to-Esp" style="stroke:#181818;stroke-width:1;"/><polygon fill="#181818" points="292.28,460.16,285.5942,452.9281,287.6872,458.1835,282.4318,460.2766,292.28,460.16" style="stroke:#181818;stroke-width:1;"/><text fill="#000000" font-family="sans-serif" font-size="13" lengthAdjust="spacing" textLength="110.5444" x="235" y="383.0684">Rollup N L2 Block</text><text fill="#000000" font-family="sans-serif" font-size="13" lengthAdjust="spacing" textLength="71.2842" x="254.6301" y="398.3789">Rollup N ID</text></g><!--reverse link L2_1_Val to Esp--><g class="link" data-entity-1="L2_1_Val" data-entity-2="Esp" data-source-line="42" data-uid="lnk26" id="link_L2_1_Val_Esp"><path d="M554.5831,294.3744 C543.1331,326.6344 520.47,380.4 483,419 C467.09,435.39 445.95,448.78 426.46,458.9" fill="none" id="L2_1_Val-backto-Esp" style="stroke:#181818;stroke-width:1;"/><polygon fill="#181818" points="556.59,288.72,549.81,295.8637,554.9176,293.432,557.3492,298.5395,556.59,288.72" style="stroke:#181818;stroke-width:1;"/><path d="M546.0964,357 L546.0964,382 L579.0964,382 L579.0964,367 L569.0964,357 L546.0964,357" fill="#FEFFDD" style="stroke:#181818;stroke-width:0.5;"/><path d="M569.0964,357 L569.0964,367 L579.0964,367 L569.0964,357" fill="#FEFFDD" style="stroke:#181818;stroke-width:0.5;"/><text fill="#000000" font-family="sans-serif" font-size="13" lengthAdjust="spacing" textLength="12.3335" x="552.0964" y="374.5684">4.</text><text fill="#000000" font-family="sans-serif" font-size="13" lengthAdjust="spacing" textLength="66.4663" x="529.53" y="400.8789">Confirmed</text><text fill="#000000" font-family="sans-serif" font-size="13" lengthAdjust="spacing" textLength="33.4775" x="546.0244" y="416.1895">Block</text></g><!--link Esp to LC--><g class="link" data-entity-1="Esp" data-entity-2="LC" data-source-line="47" data-uid="lnk27" id="link_Esp_LC"><path d="M380.85,506.06 C397.66,554.34 435.1872,662.1136 454.2972,717.0036" fill="none" id="Esp-to-LC" style="stroke:#181818;stroke-width:1;"/><polygon fill="#181818" points="456.27,722.67,457.0885,712.8552,454.626,717.948,449.5332,715.4856,456.27,722.67" style="stroke:#181818;stroke-width:1;"/><text fill="#000000" font-family="sans-serif" font-size="13" lengthAdjust="spacing" textLength="134.2212" x="418.18" y="559.5684">Block Commitment +</text><text fill="#000000" font-family="sans-serif" font-size="13" lengthAdjust="spacing" textLength="120.2183" x="425.1815" y="574.8789">Proof of consensus</text><path d="M468.6238,583.6211 L468.6238,608.6211 L501.6238,608.6211 L501.6238,593.6211 L491.6238,583.6211 L468.6238,583.6211" fill="#FEFFDD" style="stroke:#181818;stroke-width:0.5;"/><path d="M491.6238,583.6211 L491.6238,593.6211 L501.6238,593.6211 L491.6238,583.6211" fill="#FEFFDD" style="stroke:#181818;stroke-width:0.5;"/><text fill="#000000" font-family="sans-serif" font-size="13" lengthAdjust="spacing" textLength="12.3335" x="474.6238" y="601.1895">5.</text></g><!--link L2_1_Prover to L2_1_L1--><g class="link" data-entity-1="L2_1_Prover" data-entity-2="L2_1_L1" data-source-line="52" data-uid="lnk28" id="link_L2_1_Prover_L2_1_L1"><path d="M889.25,288.54 C855.04,367.56 742.8933,626.6737 703.6833,717.2637" fill="none" id="L2_1_Prover-to-L2_1_L1" style="stroke:#181818;stroke-width:1;"/><polygon fill="#181818" points="701.3,722.77,708.5459,716.0994,703.2861,718.1814,701.2041,712.9216,701.3,722.77" style="stroke:#181818;stroke-width:1;"/><path d="M822.92,454 L822.92,479 L855.92,479 L855.92,464 L845.92,454 L822.92,454" fill="#FEFFDD" style="stroke:#181818;stroke-width:0.5;"/><path d="M845.92,454 L845.92,464 L855.92,464 L845.92,454" fill="#FEFFDD" style="stroke:#181818;stroke-width:0.5;"/><text fill="#000000" font-family="sans-serif" font-size="13" lengthAdjust="spacing" textLength="12.3335" x="828.92" y="471.5684">6.</text><text fill="#000000" font-family="sans-serif" font-size="13" lengthAdjust="spacing" textLength="31.1479" x="824.0128" y="497.8789">State</text><text fill="#000000" font-family="sans-serif" font-size="13" lengthAdjust="spacing" textLength="33.2554" x="822.9591" y="513.1895">Proof</text></g><!--link LC to L2_L1--><g class="link" data-entity-1="LC" data-entity-2="L2_L1" data-source-line="57" data-uid="lnk29" id="link_LC_L2_L1"><path d="M526.29,754.49 C543.36,754.49 561.205,754.49 575.4837,754.49 C582.6231,754.49 588.8709,754.49 593.6845,754.49 C594.2862,754.49 594.8655,754.49 595.4213,754.49 C595.5603,754.49 589.6978,754.49 589.8338,754.49" fill="none" id="LC-to-L2_L1" style="stroke:#181818;stroke-width:1;"/><polygon fill="#181818" points="595.8338,754.49,586.8338,750.49,590.8338,754.49,586.8338,758.49,595.8338,754.49" style="stroke:#181818;stroke-width:1;"/><path d="M548.35,721.49 L548.35,746.49 L581.35,746.49 L581.35,731.49 L571.35,721.49 L548.35,721.49" fill="#FEFFDD" style="stroke:#181818;stroke-width:0.5;"/><path d="M571.35,721.49 L571.35,731.49 L581.35,731.49 L571.35,721.49" fill="#FEFFDD" style="stroke:#181818;stroke-width:0.5;"/><text fill="#000000" font-family="sans-serif" font-size="13" lengthAdjust="spacing" textLength="12.3335" x="554.35" y="739.0584">7.</text></g><!--SRC=[ZLF1JkCm4BtxAqQzB0YrKWmB4eULbi8157ahYZX5ghofAL4JEzZkejMg_xxZE7PBt2AY73AJzvvdverBrRHA2cbXT6TQBOnHm8HzLtez0cu0awJbvPgl18no_bTeeARxarFuHm2VSYVngEfwqqBM0nPP3nd0VixkuKHCLXDucFzYuyVPz3Go5XWTuCp5sqR84e_tE8mFe9vvNIsvLJggOUO0RgRL7x43-J3YlktNEhVS2hYzsHNOPJhmzaZ_D83f4G0B04Qsm_7smylIwURLwjN2jAumAkHKIQjvQJtSponAzUS4J71iaHzn91Wtb7Nzvjad39eowESCbZ9OO6nn7CGt2EFnZxWGSEtMxKbpQP1MAMaAYGdl3Iw6heGXKc5WLGlg1UfAhaas8K8kmUK7elHBWXyvx4iSudSJF0U_Ej9DhSfrMY3TAp0IaOcN3WyBdaI1GiRK_QrN2qhd0oMQwj1KXpgThhK4pL8qSsZYKEDD6yp1-uKaDFIbqerO5l98gnVx1NOQI_KkdOepjoEXIjDKjd4pFoiaNaeaurlYf8KqczxXtyfQrKJXxuFEmstUxG_k_BLtgHTDgxly83BjtSEbF7JYrHxuFm00]--></g></svg>